<svg width="411" height="823" viewBox="0 0 411 823" fill="none" xmlns="http://www.w3.org/2000/svg">
<g clip-path="url(#clip0)">
<rect width="411" height="823" fill="white"/>
<ellipse cx="-16.5" cy="494.5" rx="128.5" ry="140.5" fill="#008080"/>
<ellipse cx="241.5" cy="-9.5" rx="128.5" ry="140.5" fill="#008080"/>
<ellipse cx="16.5" cy="743.5" rx="128.5" ry="140.5" fill="#008080"/>
<ellipse cx="395.5" cy="775.5" rx="128.5" ry="140.5" fill="#008080"/>
<ellipse cx="385.5" cy="117.5" rx="128.5" ry="140.5" fill="#008080"/>
<g filter="url(#filter0_b)">
<rect width="411" height="823" fill="black" fill-opacity="0.6"/>
</g>
<rect x="32" y="181" width="348" height="460" rx="20" fill="#F1F1F1"/>
<path d="M134.6 235.264C136.477 235.179 138.312 235.136 140.104 235.136C141.939 235.136 143.859 235.328 145.864 235.712C147.912 236.096 149.917 236.821 151.88 237.888C153.885 238.912 155.571 240.256 156.936 241.92C158.344 243.541 159.475 245.696 160.328 248.384C161.181 251.072 161.608 254.336 161.608 258.176C161.608 262.016 160.968 265.472 159.688 268.544C158.451 271.573 156.744 273.899 154.568 275.52C150.344 278.677 145.245 280.256 139.272 280.256C137.181 280.256 134.984 280.171 132.68 280H129.48V235.264H134.6ZM134.792 279.488C135.688 279.573 136.819 279.616 138.184 279.616C139.549 279.616 140.573 279.595 141.256 279.552C141.939 279.509 142.877 279.339 144.072 279.04C145.267 278.699 146.376 278.251 147.4 277.696C148.424 277.141 149.491 276.331 150.6 275.264C151.752 274.155 152.733 272.853 153.544 271.36C155.379 267.861 156.296 263.296 156.296 257.664C156.296 253.653 155.805 250.197 154.824 247.296C153.843 244.352 152.712 242.176 151.432 240.768C150.195 239.36 148.68 238.251 146.888 237.44C145.096 236.587 143.667 236.096 142.6 235.968C141.533 235.84 140.296 235.776 138.888 235.776C137.48 235.776 136.115 235.84 134.792 235.968V279.488ZM173.276 280C171.526 280 170.182 279.616 169.244 278.848C168.348 278.08 167.878 277.312 167.836 276.544L167.772 275.456V248H172.252V275.456C172.252 276.693 172.486 277.653 172.956 278.336C173.468 278.976 173.958 279.317 174.428 279.36L175.196 279.488H177.18V280H173.276ZM168.156 240.832C167.644 240.32 167.388 239.68 167.388 238.912C167.388 238.144 167.644 237.504 168.156 236.992C168.668 236.437 169.308 236.16 170.076 236.16C170.844 236.16 171.484 236.437 171.996 236.992C172.55 237.504 172.828 238.144 172.828 238.912C172.828 239.68 172.55 240.32 171.996 240.832C171.484 241.344 170.844 241.6 170.076 241.6C169.308 241.6 168.668 241.344 168.156 240.832ZM200.373 250.24C199.69 249.685 198.581 249.216 197.045 248.832C195.552 248.448 194.421 248.256 193.653 248.256C192.885 248.256 192.437 248.256 192.309 248.256C190.005 248.299 188.341 248.896 187.317 250.048C186.293 251.157 185.781 252.416 185.781 253.824C185.781 255.232 186.229 256.427 187.125 257.408C188.021 258.347 189.13 259.093 190.453 259.648C191.818 260.16 193.269 260.757 194.805 261.44C196.384 262.123 197.834 262.827 199.157 263.552C200.522 264.235 201.653 265.259 202.549 266.624C203.445 267.947 203.893 269.611 203.893 271.616C203.893 273.621 203.189 275.328 201.781 276.736C200.373 278.144 198.794 279.083 197.045 279.552C195.338 280.021 193.482 280.256 191.477 280.256C187.125 280.256 183.861 279.296 181.685 277.376L182.069 276.992C182.922 277.803 184.181 278.464 185.845 278.976C187.552 279.488 189.194 279.744 190.773 279.744C193.29 279.744 195.36 279.061 196.981 277.696C198.645 276.288 199.477 274.56 199.477 272.512C199.477 270.421 198.858 268.757 197.621 267.52C196.384 266.24 194.869 265.259 193.077 264.576C191.328 263.851 189.557 263.147 187.765 262.464C185.973 261.739 184.458 260.757 183.221 259.52C181.984 258.24 181.365 256.768 181.365 255.104C181.365 253.44 181.749 252.096 182.517 251.072C183.285 250.005 184.309 249.259 185.589 248.832C187.765 248.107 189.941 247.744 192.117 247.744C195.786 247.744 198.645 248.427 200.693 249.792L200.373 250.24ZM213.963 280C212.214 280 210.87 279.616 209.931 278.848C209.035 278.08 208.566 277.312 208.523 276.544L208.459 275.456V248H212.939V275.456C212.939 276.693 213.174 277.653 213.643 278.336C214.155 278.976 214.646 279.317 215.115 279.36L215.883 279.488H217.867V280H213.963ZM208.843 240.832C208.331 240.32 208.075 239.68 208.075 238.912C208.075 238.144 208.331 237.504 208.843 236.992C209.355 236.437 209.995 236.16 210.763 236.16C211.531 236.16 212.171 236.437 212.683 236.992C213.238 237.504 213.515 238.144 213.515 238.912C213.515 239.68 213.238 240.32 212.683 240.832C212.171 241.344 211.531 241.6 210.763 241.6C209.995 241.6 209.355 241.344 208.843 240.832ZM234.978 280.256C230.498 280.256 226.85 278.976 224.034 276.416C221.218 273.856 219.81 269.909 219.81 264.576C219.81 259.243 221.261 255.104 224.162 252.16C227.106 249.216 230.818 247.744 235.298 247.744C239.821 247.744 243.49 249.024 246.306 251.584C249.122 254.144 250.53 258.091 250.53 263.424C250.53 268.757 249.058 272.896 246.114 275.84C243.213 278.784 239.501 280.256 234.978 280.256ZM235.426 248.256C232.183 248.256 229.495 249.707 227.362 252.608C225.229 255.467 224.162 259.477 224.162 264.64C224.162 269.76 225.143 273.557 227.106 276.032C229.069 278.507 231.671 279.744 234.914 279.744C238.157 279.744 240.845 278.315 242.978 275.456C245.111 272.555 246.178 268.544 246.178 263.424C246.178 258.261 245.197 254.443 243.234 251.968C241.271 249.493 238.669 248.256 235.426 248.256ZM280.933 280C279.183 280 277.839 279.616 276.901 278.848C276.005 278.08 275.535 277.312 275.493 276.544L275.429 275.456V255.36C275.429 251.989 274.554 249.835 272.805 248.896C271.909 248.469 270.799 248.256 269.477 248.256C266.746 248.256 264.293 249.344 262.117 251.52C259.941 253.653 258.853 255.573 258.853 257.28V280H254.373V248H258.853V255.296C259.578 253.461 260.922 251.755 262.885 250.176C264.847 248.555 267.002 247.744 269.349 247.744C271.695 247.744 273.594 247.979 275.045 248.448C276.538 248.875 277.626 249.493 278.309 250.304C279.375 251.627 279.909 253.333 279.909 255.424V275.456C279.909 276.693 280.143 277.653 280.613 278.336C281.125 278.976 281.637 279.317 282.149 279.36L282.853 279.488H284.837V280H280.933Z" fill="#008080"/>
<line x1="73.9914" y1="365.083" x2="344.008" y2="364.917" stroke="#008080"/>
<line x1="73.9914" y1="427.083" x2="344.008" y2="426.917" stroke="#008080"/>
<path d="M112.232 335.2V335.44H104.672V342.64H111.68V342.88H104.672V351.76H112.76V352H102.68V335.2H112.232ZM128.807 342.76C128.807 341.784 128.679 341.096 128.423 340.696C128.167 340.296 127.679 340.096 126.959 340.096C125.999 340.096 125.143 340.496 124.391 341.296C123.655 342.096 123.287 342.816 123.287 343.456V352H121.607V342.76C121.607 341.784 121.479 341.096 121.223 340.696C120.967 340.296 120.423 340.096 119.591 340.096C118.759 340.096 117.967 340.48 117.215 341.248C116.479 342.016 116.079 342.728 116.015 343.384V352H114.335V340H116.015V342.712C116.271 342.024 116.743 341.384 117.431 340.792C118.119 340.2 118.887 339.904 119.735 339.904C120.583 339.904 121.255 339.984 121.751 340.144C122.263 340.288 122.623 340.52 122.831 340.84C123.039 341.16 123.167 341.44 123.215 341.68C123.263 341.92 123.287 342.256 123.287 342.688C123.543 342 124.007 341.368 124.679 340.792C125.351 340.2 126.071 339.904 126.839 339.904C127.607 339.904 128.223 339.968 128.687 340.096C129.151 340.224 129.495 340.368 129.719 340.528C129.959 340.688 130.135 340.92 130.247 341.224C130.375 341.528 130.447 341.776 130.463 341.968C130.479 342.16 130.487 342.432 130.487 342.784V350.296C130.487 350.76 130.575 351.12 130.751 351.376C130.943 351.616 131.135 351.744 131.327 351.76L131.591 351.808H132.335V352H130.871C130.215 352 129.711 351.856 129.359 351.568C129.023 351.28 128.847 350.992 128.831 350.704L128.807 350.296V342.76ZM142.974 352C141.886 352 141.142 351.792 140.742 351.376C140.374 351.024 140.19 350.72 140.19 350.464V349.96C139.406 351.384 138.15 352.096 136.422 352.096C134.406 352.096 133.262 351.184 132.99 349.36C132.958 349.168 132.942 348.976 132.942 348.784C132.942 348.576 132.974 348.352 133.038 348.112C133.102 347.872 133.286 347.608 133.59 347.32C134.198 346.744 135.534 346.392 137.598 346.264C138.11 346.216 138.582 346.192 139.014 346.192C139.446 346.192 139.838 346.208 140.19 346.24V342.256C140.158 342.24 140.158 342.168 140.19 342.04C140.222 341.896 140.19 341.72 140.094 341.512C140.014 341.288 139.902 341.072 139.758 340.864C139.614 340.656 139.358 340.48 138.99 340.336C138.622 340.176 138.142 340.096 137.55 340.096C136.958 340.096 136.262 340.208 135.462 340.432C134.678 340.64 134.102 340.848 133.734 341.056L133.638 340.888C135.062 340.232 136.51 339.904 137.982 339.904C139.63 339.904 140.718 340.2 141.246 340.792C141.662 341.256 141.87 341.744 141.87 342.256V350.296C141.87 350.76 141.958 351.12 142.134 351.376C142.326 351.616 142.518 351.744 142.71 351.76L142.974 351.808H143.718V352H142.974ZM136.806 351.904C137.654 351.904 138.414 351.616 139.086 351.04C139.774 350.448 140.142 349.88 140.19 349.336V346.432C139.758 346.4 139.318 346.384 138.87 346.384C138.438 346.384 138.006 346.408 137.574 346.456C136.358 346.6 135.566 346.872 135.198 347.272C134.83 347.672 134.646 348.224 134.646 348.928C134.646 349.056 134.654 349.2 134.67 349.36C134.814 351.056 135.526 351.904 136.806 351.904ZM147.486 352C146.83 352 146.326 351.856 145.974 351.568C145.638 351.28 145.462 350.992 145.446 350.704L145.422 350.296V340H147.102V350.296C147.102 350.76 147.19 351.12 147.366 351.376C147.558 351.616 147.742 351.744 147.918 351.76L148.206 351.808H148.95V352H147.486ZM145.566 337.312C145.374 337.12 145.278 336.88 145.278 336.592C145.278 336.304 145.374 336.064 145.566 335.872C145.758 335.664 145.998 335.56 146.286 335.56C146.574 335.56 146.814 335.664 147.006 335.872C147.214 336.064 147.318 336.304 147.318 336.592C147.318 336.88 147.214 337.12 147.006 337.312C146.814 337.504 146.574 337.6 146.286 337.6C145.998 337.6 145.758 337.504 145.566 337.312ZM153.922 352C152.514 352 151.626 351.632 151.258 350.896C151.178 350.736 151.138 350.592 151.138 350.464V334.024H152.818V350.296C152.818 350.76 152.906 351.12 153.082 351.376C153.274 351.616 153.466 351.744 153.658 351.76L153.922 351.808H154.666V352H153.922Z" fill="#C4C4C4"/>
<path d="M98.68 394.392C100.536 394.264 102.168 394.2 103.576 394.2C107.544 394.2 109.528 395.6 109.528 398.4C109.528 399.696 109.192 400.832 108.52 401.808C108.168 402.336 107.624 402.76 106.888 403.08C106.152 403.384 105.264 403.536 104.224 403.536H100.672V411H98.68V394.392ZM103.6 394.44C102.672 394.44 101.696 394.496 100.672 394.608V403.296H104.224C106.48 403.2 107.608 401.584 107.608 398.448C107.608 397.168 107.272 396.184 106.6 395.496C105.928 394.792 104.928 394.44 103.6 394.44ZM121.138 411C120.05 411 119.306 410.792 118.906 410.376C118.538 410.024 118.354 409.72 118.354 409.464V408.96C117.57 410.384 116.314 411.096 114.586 411.096C112.57 411.096 111.426 410.184 111.154 408.36C111.122 408.168 111.106 407.976 111.106 407.784C111.106 407.576 111.138 407.352 111.202 407.112C111.266 406.872 111.45 406.608 111.754 406.32C112.362 405.744 113.698 405.392 115.762 405.264C116.274 405.216 116.746 405.192 117.178 405.192C117.61 405.192 118.002 405.208 118.354 405.24V401.256C118.322 401.24 118.322 401.168 118.354 401.04C118.386 400.896 118.354 400.72 118.258 400.512C118.178 400.288 118.066 400.072 117.922 399.864C117.778 399.656 117.522 399.48 117.154 399.336C116.786 399.176 116.306 399.096 115.714 399.096C115.122 399.096 114.426 399.208 113.626 399.432C112.842 399.64 112.266 399.848 111.898 400.056L111.802 399.888C113.226 399.232 114.674 398.904 116.146 398.904C117.794 398.904 118.882 399.2 119.41 399.792C119.826 400.256 120.034 400.744 120.034 401.256V409.296C120.034 409.76 120.122 410.12 120.298 410.376C120.49 410.616 120.682 410.744 120.874 410.76L121.138 410.808H121.882V411H121.138ZM114.97 410.904C115.818 410.904 116.578 410.616 117.25 410.04C117.938 409.448 118.306 408.88 118.354 408.336V405.432C117.922 405.4 117.482 405.384 117.034 405.384C116.602 405.384 116.17 405.408 115.738 405.456C114.522 405.6 113.73 405.872 113.362 406.272C112.994 406.672 112.81 407.224 112.81 407.928C112.81 408.056 112.818 408.2 112.834 408.36C112.978 410.056 113.69 410.904 114.97 410.904ZM130.21 399.84C129.954 399.632 129.538 399.456 128.962 399.312C128.402 399.168 127.978 399.096 127.69 399.096C127.402 399.096 127.234 399.096 127.186 399.096C126.322 399.112 125.698 399.336 125.314 399.768C124.93 400.184 124.738 400.656 124.738 401.184C124.738 401.712 124.906 402.16 125.242 402.528C125.578 402.88 125.994 403.16 126.49 403.368C127.002 403.56 127.546 403.784 128.122 404.04C128.714 404.296 129.258 404.56 129.754 404.832C130.266 405.088 130.69 405.472 131.026 405.984C131.362 406.48 131.53 407.104 131.53 407.856C131.53 408.608 131.266 409.248 130.738 409.776C130.21 410.304 129.618 410.656 128.962 410.832C128.322 411.008 127.626 411.096 126.874 411.096C125.242 411.096 124.018 410.736 123.202 410.016L123.346 409.872C123.666 410.176 124.138 410.424 124.762 410.616C125.402 410.808 126.018 410.904 126.61 410.904C127.554 410.904 128.33 410.648 128.938 410.136C129.562 409.608 129.874 408.96 129.874 408.192C129.874 407.408 129.642 406.784 129.178 406.32C128.714 405.84 128.146 405.472 127.474 405.216C126.818 404.944 126.154 404.68 125.482 404.424C124.81 404.152 124.242 403.784 123.778 403.32C123.314 402.84 123.082 402.288 123.082 401.664C123.082 401.04 123.226 400.536 123.514 400.152C123.802 399.752 124.186 399.472 124.666 399.312C125.482 399.04 126.298 398.904 127.114 398.904C128.49 398.904 129.562 399.16 130.33 399.672L130.21 399.84ZM140.101 399.84C139.845 399.632 139.429 399.456 138.853 399.312C138.293 399.168 137.869 399.096 137.581 399.096C137.293 399.096 137.125 399.096 137.077 399.096C136.213 399.112 135.589 399.336 135.205 399.768C134.821 400.184 134.629 400.656 134.629 401.184C134.629 401.712 134.797 402.16 135.133 402.528C135.469 402.88 135.885 403.16 136.381 403.368C136.893 403.56 137.437 403.784 138.013 404.04C138.605 404.296 139.149 404.56 139.645 404.832C140.157 405.088 140.581 405.472 140.917 405.984C141.253 406.48 141.421 407.104 141.421 407.856C141.421 408.608 141.157 409.248 140.629 409.776C140.101 410.304 139.509 410.656 138.853 410.832C138.213 411.008 137.517 411.096 136.765 411.096C135.133 411.096 133.909 410.736 133.093 410.016L133.237 409.872C133.557 410.176 134.029 410.424 134.653 410.616C135.293 410.808 135.909 410.904 136.501 410.904C137.445 410.904 138.221 410.648 138.829 410.136C139.453 409.608 139.765 408.96 139.765 408.192C139.765 407.408 139.533 406.784 139.069 406.32C138.605 405.84 138.037 405.472 137.365 405.216C136.709 404.944 136.045 404.68 135.373 404.424C134.701 404.152 134.133 403.784 133.669 403.32C133.205 402.84 132.973 402.288 132.973 401.664C132.973 401.04 133.117 400.536 133.405 400.152C133.693 399.752 134.077 399.472 134.557 399.312C135.373 399.04 136.189 398.904 137.005 398.904C138.381 398.904 139.453 399.16 140.221 399.672L140.101 399.84ZM159.285 399.144L159.429 399C159.493 399.032 159.573 399.128 159.669 399.288C159.781 399.448 159.845 399.592 159.861 399.72C159.893 399.848 159.909 399.968 159.909 400.08C159.909 400.512 159.813 400.952 159.621 401.4L155.253 411H155.013L151.557 401.712L147.333 411H147.093L142.629 399H144.309L147.981 408.936L151.437 401.424L150.549 399H152.229L155.901 408.936L159.381 401.4C159.573 401.064 159.669 400.664 159.669 400.2C159.669 399.736 159.541 399.384 159.285 399.144ZM166.929 411.096C165.249 411.096 163.881 410.616 162.825 409.656C161.769 408.696 161.241 407.216 161.241 405.216C161.241 403.216 161.785 401.664 162.873 400.56C163.977 399.456 165.369 398.904 167.049 398.904C168.745 398.904 170.121 399.384 171.177 400.344C172.233 401.304 172.761 402.784 172.761 404.784C172.761 406.784 172.209 408.336 171.105 409.44C170.017 410.544 168.625 411.096 166.929 411.096ZM167.097 399.096C165.881 399.096 164.873 399.64 164.073 400.728C163.273 401.8 162.873 403.304 162.873 405.24C162.873 407.16 163.241 408.584 163.977 409.512C164.713 410.44 165.689 410.904 166.905 410.904C168.121 410.904 169.129 410.368 169.929 409.296C170.729 408.208 171.129 406.704 171.129 404.784C171.129 402.848 170.761 401.416 170.025 400.488C169.289 399.56 168.313 399.096 167.097 399.096ZM178.786 400.032V399.528C178.066 399.816 177.41 400.4 176.818 401.28C176.226 402.144 175.914 402.96 175.882 403.728V411H174.202V399H175.882V402.816C176.138 401.888 176.626 401.016 177.346 400.2C178.066 399.368 178.882 398.936 179.794 398.904H179.89C180.21 398.904 180.474 399.016 180.682 399.24C180.906 399.448 181.018 399.712 181.018 400.032C181.018 400.352 180.906 400.616 180.682 400.824C180.474 401.032 180.21 401.136 179.89 401.136C179.57 401.136 179.306 401.032 179.098 400.824C178.89 400.616 178.786 400.352 178.786 400.032ZM182.101 405.432C182.101 403.352 182.605 401.744 183.613 400.608C184.621 399.472 186.133 398.904 188.149 398.904C189.093 398.904 190.045 399.144 191.005 399.624V393.024H192.685V409.296C192.685 409.76 192.773 410.12 192.949 410.376C193.141 410.616 193.333 410.744 193.525 410.76L193.789 410.808H194.533V411H193.069C192.413 411 191.909 410.856 191.557 410.568C191.221 410.28 191.045 409.992 191.029 409.704L191.005 409.296V408.912C190.701 409.472 190.197 409.968 189.493 410.4C188.789 410.832 187.957 411.048 186.997 411.048C183.733 410.968 182.101 409.096 182.101 405.432ZM187.021 410.856C188.093 410.856 189.013 410.568 189.781 409.992C190.549 409.416 190.957 408.848 191.005 408.288V399.84C189.869 399.344 188.893 399.096 188.077 399.096C186.653 399.096 185.581 399.656 184.861 400.776C184.141 401.88 183.781 403.432 183.781 405.432C183.781 409.048 184.861 410.856 187.021 410.856Z" fill="#C4C4C4"/>
<path d="M345.061 471.061C345.646 470.475 345.646 469.525 345.061 468.939L335.515 459.393C334.929 458.808 333.979 458.808 333.393 459.393C332.808 459.979 332.808 460.929 333.393 461.515L341.879 470L333.393 478.485C332.808 479.071 332.808 480.021 333.393 480.607C333.979 481.192 334.929 481.192 335.515 480.607L345.061 471.061ZM306 471.5H344V468.5H306V471.5Z" fill="#008080"/>
<path d="M74.9 506.006C74.9 503.822 75.428 502.166 76.484 501.038C77.552 499.898 78.92 499.328 80.588 499.328C82.256 499.328 83.582 499.82 84.566 500.804C85.562 501.788 86.06 503.36 86.06 505.52C86.06 507.68 85.532 509.312 84.476 510.416C83.42 511.52 82.01 512.072 80.246 512.072C78.722 512.072 77.474 511.634 76.502 510.758C75.998 510.302 75.602 509.672 75.314 508.868C75.038 508.052 74.9 507.098 74.9 506.006ZM80.534 499.508C79.322 499.508 78.326 500.048 77.546 501.128C76.778 502.208 76.394 503.792 76.394 505.88C76.394 507.968 76.76 509.492 77.492 510.452C78.224 511.412 79.196 511.892 80.408 511.892C81.632 511.892 82.628 511.352 83.396 510.272C84.176 509.18 84.566 507.602 84.566 505.538C84.566 503.462 84.194 501.938 83.45 500.966C82.718 499.994 81.746 499.508 80.534 499.508ZM91.1131 503.774V503.396C90.5731 503.612 90.0811 504.05 89.6371 504.71C89.1931 505.358 88.9591 505.97 88.9351 506.546V512H87.6751V503H88.9351V505.862C89.1271 505.166 89.4931 504.512 90.0331 503.9C90.5731 503.276 91.1851 502.952 91.8691 502.928H91.9411C92.1811 502.928 92.3791 503.012 92.5351 503.18C92.7031 503.336 92.7871 503.534 92.7871 503.774C92.7871 504.014 92.7031 504.212 92.5351 504.368C92.3791 504.524 92.1811 504.602 91.9411 504.602C91.7011 504.602 91.5031 504.524 91.3471 504.368C91.1911 504.212 91.1131 504.014 91.1131 503.774ZM106.705 500.156C105.613 499.736 104.581 499.526 103.609 499.526C102.649 499.526 101.899 499.73 101.359 500.138C100.819 500.546 100.549 501.11 100.549 501.83C100.549 502.706 101.005 503.384 101.917 503.864C102.325 504.068 102.769 504.26 103.249 504.44C103.741 504.608 104.233 504.8 104.725 505.016C105.217 505.232 105.667 505.478 106.075 505.754C106.483 506.03 106.813 506.414 107.065 506.906C107.317 507.386 107.443 508.004 107.443 508.76C107.443 509.504 107.233 510.14 106.813 510.668C106.393 511.196 105.883 511.556 105.283 511.748C104.695 511.928 104.005 512.018 103.213 512.018C101.737 512.018 100.477 511.652 99.4327 510.92L99.5227 510.776C99.9187 511.088 100.429 511.346 101.053 511.55C101.689 511.742 102.337 511.838 102.997 511.838C103.969 511.838 104.797 511.616 105.481 511.172C106.177 510.716 106.525 510.05 106.525 509.174C106.525 508.214 106.069 507.464 105.157 506.924C104.749 506.684 104.299 506.462 103.807 506.258C103.327 506.054 102.841 505.844 102.349 505.628C101.857 505.4 101.407 505.148 100.999 504.872C100.087 504.272 99.6307 503.42 99.6307 502.316C99.6307 501.44 99.9247 500.732 100.513 500.192C101.101 499.64 101.983 499.364 103.159 499.364C104.347 499.364 105.553 499.568 106.777 499.976L106.705 500.156ZM110.622 512C110.13 512 109.752 511.892 109.488 511.676C109.236 511.46 109.104 511.244 109.092 511.028L109.074 510.722V503H110.334V510.722C110.334 511.07 110.4 511.34 110.532 511.532C110.676 511.712 110.814 511.808 110.946 511.82L111.162 511.856H111.72V512H110.622ZM109.182 500.984C109.038 500.84 108.966 500.66 108.966 500.444C108.966 500.228 109.038 500.048 109.182 499.904C109.326 499.748 109.506 499.67 109.722 499.67C109.938 499.67 110.118 499.748 110.262 499.904C110.418 500.048 110.496 500.228 110.496 500.444C110.496 500.66 110.418 500.84 110.262 500.984C110.118 501.128 109.938 501.2 109.722 501.2C109.506 501.2 109.326 501.128 109.182 500.984ZM112.722 507.824C112.722 506.264 113.1 505.058 113.856 504.206C114.612 503.354 115.746 502.928 117.258 502.928C118.374 502.928 119.508 503.126 120.66 503.522V512.216C120.648 515.072 119.4 516.5 116.916 516.5C115.548 516.5 114.378 516.056 113.406 515.168L113.532 515.06C114.564 515.924 115.692 516.356 116.916 516.356C118.572 516.356 119.4 514.976 119.4 512.216V510.434C119.172 510.854 118.794 511.226 118.266 511.55C117.738 511.874 117.114 512.036 116.394 512.036C113.946 511.976 112.722 510.572 112.722 507.824ZM116.412 511.892C117.216 511.892 117.906 511.676 118.482 511.244C119.058 510.812 119.364 510.386 119.4 509.966V503.612C118.536 503.252 117.804 503.072 117.204 503.072C116.136 503.072 115.332 503.492 114.792 504.332C114.252 505.16 113.982 506.324 113.982 507.824C113.982 510.536 114.792 511.892 116.412 511.892ZM130.372 512C129.88 512 129.502 511.892 129.238 511.676C128.986 511.46 128.854 511.244 128.842 511.028L128.824 510.722V505.07C128.824 504.122 128.578 503.516 128.086 503.252C127.834 503.132 127.522 503.072 127.15 503.072C126.382 503.072 125.692 503.378 125.08 503.99C124.468 504.59 124.162 505.13 124.162 505.61V512H122.902V503H124.162V505.052C124.366 504.536 124.744 504.056 125.296 503.612C125.848 503.156 126.454 502.928 127.114 502.928C127.774 502.928 128.308 502.994 128.716 503.126C129.136 503.246 129.442 503.42 129.634 503.648C129.934 504.02 130.084 504.5 130.084 505.088V510.722C130.084 511.07 130.15 511.34 130.282 511.532C130.426 511.712 130.57 511.808 130.714 511.82L130.912 511.856H131.47V512H130.372ZM139.591 512C139.099 512 138.721 511.892 138.457 511.676C138.205 511.46 138.073 511.244 138.061 511.028L138.043 510.722V503H139.303V510.722C139.303 511.07 139.369 511.34 139.501 511.532C139.645 511.712 139.783 511.808 139.915 511.82L140.131 511.856H140.689V512H139.591ZM138.151 500.984C138.007 500.84 137.935 500.66 137.935 500.444C137.935 500.228 138.007 500.048 138.151 499.904C138.295 499.748 138.475 499.67 138.691 499.67C138.907 499.67 139.087 499.748 139.231 499.904C139.387 500.048 139.465 500.228 139.465 500.444C139.465 500.66 139.387 500.84 139.231 500.984C139.087 501.128 138.907 501.2 138.691 501.2C138.475 501.2 138.295 501.128 138.151 500.984ZM149.251 512C148.759 512 148.381 511.892 148.117 511.676C147.865 511.46 147.733 511.244 147.721 511.028L147.703 510.722V505.07C147.703 504.122 147.457 503.516 146.965 503.252C146.713 503.132 146.401 503.072 146.029 503.072C145.261 503.072 144.571 503.378 143.959 503.99C143.347 504.59 143.041 505.13 143.041 505.61V512H141.781V503H143.041V505.052C143.245 504.536 143.623 504.056 144.175 503.612C144.727 503.156 145.333 502.928 145.993 502.928C146.653 502.928 147.187 502.994 147.595 503.126C148.015 503.246 148.321 503.42 148.513 503.648C148.813 504.02 148.963 504.5 148.963 505.088V510.722C148.963 511.07 149.029 511.34 149.161 511.532C149.305 511.712 149.449 511.808 149.593 511.82L149.791 511.856H150.349V512H149.251ZM169.036 503.108L169.144 503C169.192 503.024 169.252 503.096 169.324 503.216C169.408 503.336 169.456 503.444 169.468 503.54C169.492 503.636 169.504 503.726 169.504 503.81C169.504 504.134 169.432 504.464 169.288 504.8L166.012 512H165.832L163.24 505.034L160.072 512H159.892L156.544 503H157.804L160.558 510.452L163.15 504.818L162.484 503H163.744L166.498 510.452L169.108 504.8C169.252 504.548 169.324 504.248 169.324 503.9C169.324 503.552 169.228 503.288 169.036 503.108ZM172.339 512C171.847 512 171.469 511.892 171.205 511.676C170.953 511.46 170.821 511.244 170.809 511.028L170.791 510.722V503H172.051V510.722C172.051 511.07 172.117 511.34 172.249 511.532C172.393 511.712 172.531 511.808 172.663 511.82L172.879 511.856H173.437V512H172.339ZM170.899 500.984C170.755 500.84 170.683 500.66 170.683 500.444C170.683 500.228 170.755 500.048 170.899 499.904C171.043 499.748 171.223 499.67 171.439 499.67C171.655 499.67 171.835 499.748 171.979 499.904C172.135 500.048 172.213 500.228 172.213 500.444C172.213 500.66 172.135 500.84 171.979 500.984C171.835 501.128 171.655 501.2 171.439 501.2C171.223 501.2 171.043 501.128 170.899 500.984ZM174.79 503.144V503H175.168V501.2H176.428V503H179.182V503.144H176.428V509.696C176.428 510.476 176.512 511.04 176.68 511.388C176.86 511.736 177.226 511.91 177.778 511.91C178.342 511.91 178.912 511.796 179.488 511.568L179.542 511.712C178.942 511.94 178.252 512.054 177.472 512.054C176.704 512.054 176.128 511.898 175.744 511.586C175.36 511.262 175.168 510.626 175.168 509.678V503.144H174.79ZM187.907 512C187.415 512 187.037 511.892 186.773 511.676C186.521 511.46 186.389 511.244 186.377 511.028L186.359 510.722V505.07C186.359 504.122 186.107 503.516 185.603 503.252C185.363 503.132 185.057 503.072 184.685 503.072C183.941 503.072 183.269 503.378 182.669 503.99C182.081 504.59 181.787 505.13 181.787 505.61V512H180.527V498.518H181.787V505.052C181.979 504.536 182.345 504.056 182.885 503.612C183.425 503.156 184.031 502.928 184.703 502.928C185.867 502.928 186.641 503.132 187.025 503.54C187.421 503.936 187.619 504.452 187.619 505.088V510.722C187.619 511.07 187.685 511.34 187.817 511.532C187.961 511.712 188.099 511.808 188.231 511.82L188.447 511.856H189.005V512H187.907Z" fill="black"/>
<rect x="74" y="557" width="33" height="33" fill="#FC0307"/>
<path d="M94.2676 577.383C93.793 577.951 93.1221 578.394 92.2549 578.71C91.3877 579.021 90.4268 579.176 89.3721 579.176C88.2646 579.176 87.292 578.936 86.4541 578.455C85.6221 577.969 84.9775 577.266 84.5205 576.346C84.0693 575.426 83.8379 574.345 83.8262 573.103V572.232C83.8262 570.955 84.04 569.851 84.4678 568.919C84.9014 567.981 85.5225 567.267 86.3311 566.774C87.1455 566.276 88.0977 566.027 89.1875 566.027C90.7051 566.027 91.8916 566.391 92.7471 567.117C93.6025 567.838 94.1094 568.89 94.2676 570.272H91.7012C91.584 569.54 91.3232 569.004 90.9189 568.664C90.5205 568.324 89.9697 568.154 89.2666 568.154C88.3701 568.154 87.6875 568.491 87.2188 569.165C86.75 569.839 86.5127 570.841 86.5068 572.171V572.988C86.5068 574.33 86.7617 575.344 87.2715 576.029C87.7812 576.715 88.5283 577.058 89.5127 577.058C90.5029 577.058 91.209 576.847 91.6309 576.425V574.219H89.2314V572.276H94.2676V577.383Z" fill="white"/>
<rect x="163" y="557" width="33" height="33" fill="#0384FC"/>
<path d="M180.911 573.771H175.849V579H173.212V566.203H181.544V568.339H175.849V571.644H180.911V573.771Z" fill="white"/>
<rect x="253" y="557" width="33" height="33" fill="#0384FC"/>
<path d="M268.476 567.152V569.49H270.102V571.354H268.476V576.1C268.476 576.451 268.543 576.703 268.678 576.855C268.812 577.008 269.07 577.084 269.451 577.084C269.732 577.084 269.981 577.063 270.198 577.022V578.947C269.7 579.1 269.188 579.176 268.66 579.176C266.879 579.176 265.971 578.276 265.936 576.478V571.354H264.547V569.49H265.936V567.152H268.476Z" fill="white"/>
</g>
<defs>
<filter id="filter0_b" x="-15" y="-15" width="441" height="853" filterUnits="userSpaceOnUse" color-interpolation-filters="sRGB">
<feFlood flood-opacity="0" result="BackgroundImageFix"/>
<feGaussianBlur in="BackgroundImage" stdDeviation="7.5"/>
<feComposite in2="SourceAlpha" operator="in" result="effect1_backgroundBlur"/>
<feBlend mode="normal" in="SourceGraphic" in2="effect1_backgroundBlur" result="shape"/>
</filter>
<clipPath id="clip0">
<rect width="411" height="823" fill="white"/>
</clipPath>
</defs>
</svg>
