<svg width="411" height="823" viewBox="0 0 411 823" fill="none" xmlns="http://www.w3.org/2000/svg">
    <g clip-path="url(#clip0)">
        <rect width="411" height="823" fill="#F1F1F1"/>
        <ellipse cx="-16.5" cy="494.5" rx="128.5" ry="140.5" fill="#008080"/>
        <ellipse cx="241.5" cy="-9.5" rx="128.5" ry="140.5" fill="#008080"/>
        <ellipse cx="16.5" cy="743.5" rx="128.5" ry="140.5" fill="#008080"/>
        <ellipse cx="395.5" cy="775.5" rx="128.5" ry="140.5" fill="#008080"/>
        <ellipse cx="410.5" cy="129.5" rx="128.5" ry="140.5" fill="#008080"/>
        <path d="M159.2 307.688C167.648 307.304 175.904 307.112 183.968 307.112C192.224 307.112 200.864 307.976 209.888 309.704C219.104 311.432 228.128 314.696 236.96 319.496C245.984 324.104 253.568 330.152 259.712 337.64C266.048 344.936 271.136 354.632 274.976 366.728C278.816 378.824 280.736 393.512 280.736 410.792C280.736 428.072 277.856 443.624 272.096 457.448C266.528 471.08 258.848 481.544 249.056 488.84C230.048 503.048 207.104 510.152 180.224 510.152C170.816 510.152 160.928 509.768 150.56 509H136.16V307.688H159.2ZM160.064 506.696C164.096 507.08 169.184 507.272 175.328 507.272C181.472 507.272 186.08 507.176 189.152 506.984C192.224 506.792 196.448 506.024 201.824 504.68C207.2 503.144 212.192 501.128 216.8 498.632C221.408 496.136 226.208 492.488 231.2 487.688C236.384 482.696 240.8 476.84 244.448 470.12C252.704 454.376 256.832 433.832 256.832 408.488C256.832 390.44 254.624 374.888 250.208 361.832C245.792 348.584 240.704 338.792 234.944 332.456C229.376 326.12 222.56 321.128 214.496 317.48C206.432 313.64 200 311.432 195.2 310.856C190.4 310.28 184.832 309.992 178.496 309.992C172.16 309.992 166.016 310.28 160.064 310.856V506.696Z" fill="#008080"/>
        <ellipse cx="411" cy="426.5" rx="46" ry="41.5" fill="#00D0D0"/>
        <ellipse cx="79" cy="615.5" rx="46" ry="41.5" fill="#00D0D0"/>
        <ellipse cx="267" cy="124.5" rx="46" ry="41.5" fill="#00D0D0"/>
        <ellipse opacity="0.5" cy="131.5" rx="46" ry="41.5" fill="#00D0D0"/>
        <ellipse cx="206" cy="822.5" rx="46" ry="41.5" fill="#00D0D0"/>
    </g>
    <defs>
        <clipPath id="clip0">
            <rect width="411" height="823" fill="white"/>
        </clipPath>
    </defs>
</svg>
